<svg xmlns="http://www.w3.org/2000/svg" width="699" height="235" viewBox="0 0 699 235" fill="none">
<g clip-path="url(#clip0_1297_1622)">
<path d="M238.873 164.028C238.873 164.882 238.802 165.985 238.66 167.337C238.518 168.689 238.286 170.041 237.966 171.393L228.954 210.407H209.542L216.421 180.68C216.919 178.403 217.31 176.481 217.595 174.916C217.879 173.35 218.021 171.945 218.021 170.7C218.021 168.316 217.417 166.608 216.208 165.576C215.035 164.508 212.884 163.975 209.755 163.975C208.226 163.975 206.467 164.313 204.476 164.989C202.485 165.629 200.263 166.608 197.809 167.924L187.997 210.407H168.691L187.837 127.363H207.142L200.316 157.09C204.227 154.493 207.818 152.465 211.088 151.006C214.359 149.547 217.95 148.817 221.861 148.817C227.301 148.817 231.496 150.152 234.447 152.82C237.398 155.453 238.873 159.189 238.873 164.028ZM320.147 150.472L306.282 210.407H286.977L288.523 203.789C286.603 205.034 284.719 206.208 282.871 207.311C281.058 208.379 279.332 209.233 277.697 209.873C275.635 210.727 273.751 211.296 272.044 211.581C270.337 211.901 268.649 212.061 266.978 212.061C261.716 212.061 257.556 210.798 254.499 208.272C251.477 205.746 249.966 202.01 249.966 197.064C249.966 195.712 250.037 194.467 250.179 193.328C250.321 192.154 250.552 190.873 250.872 189.486L259.885 150.472H279.297L272.417 180.199C271.884 182.476 271.475 184.433 271.191 186.07C270.942 187.707 270.817 189.094 270.817 190.233C270.817 192.581 271.386 194.289 272.524 195.356C273.661 196.388 275.813 196.904 278.977 196.904C280.542 196.904 282.336 196.566 284.364 195.89C286.426 195.214 288.649 194.236 291.03 192.955L300.843 150.472H320.147ZM395.18 169.632C395.18 175.076 394.293 180.359 392.516 185.483C390.774 190.606 388.373 195.072 385.315 198.879C382.186 202.757 378.525 205.853 374.331 208.165C370.134 210.442 365.495 211.581 360.411 211.581C357.069 211.581 354.065 211.243 351.397 210.567C348.768 209.891 346.42 208.841 344.358 207.418L342.919 210.407H324.412L343.558 127.363H362.865L356.091 156.716C359.54 154.333 362.811 152.429 365.904 151.006C369.034 149.547 372.518 148.817 376.357 148.817C382.544 148.817 387.218 150.668 390.383 154.368C393.583 158.033 395.18 163.121 395.18 169.632ZM374.863 173.208C374.863 169.863 374.134 167.319 372.676 165.576C371.218 163.832 368.695 162.961 365.104 162.961C363.22 162.961 361.372 163.299 359.559 163.975C357.746 164.615 355.824 165.469 353.798 166.536L346.865 196.637C348.11 197.135 349.426 197.545 350.81 197.865C352.197 198.149 353.762 198.292 355.504 198.292C361.443 198.292 366.153 195.961 369.637 191.3C373.121 186.604 374.863 180.573 374.863 173.208Z" fill="#2C66AF"/>
<path d="M152.906 56.8593H88.2195L92.7843 29.2932L20.8089 84.4051L81.8395 144.116C55.6931 155.083 16.4778 139.457 1.90275 102.716C-10.8403 49.4305 42.938 14.9168 88.2195 16.444C131.951 17.9188 149.566 43.9998 152.906 56.8593Z" fill="#2C66AF"/>
<path d="M0 176.251H64.6867L60.1219 203.243L132.097 149.279L71.0667 90.8117C97.2132 80.0736 136.428 95.3742 151.003 131.35C163.747 183.525 109.968 217.32 64.6867 215.824C20.9551 214.38 3.34064 188.842 0 176.251Z" fill="#262626"/>
<path d="M274.358 60.8422C274.358 69.844 271.995 78.1521 267.266 85.7661C262.537 93.3804 256.476 99.2155 249.081 103.272C244.601 105.691 239.926 107.31 235.055 108.128C230.184 108.911 224.354 109.302 217.563 109.302H188.818L207.164 29.8342H232.869C240.441 29.8342 246.539 30.4211 251.161 31.5953C255.783 32.7695 259.516 34.3527 262.36 36.3453C266.271 39.0495 269.239 42.4294 271.266 46.4856C273.328 50.5063 274.358 55.2918 274.358 60.8422ZM252.92 62.7101C252.92 59.081 252.245 55.9678 250.894 53.3703C249.543 50.7374 247.481 48.6205 244.708 47.0192C243.428 46.3077 242.112 45.774 240.761 45.4182C239.446 45.0269 237.935 44.7422 236.228 44.5643C234.593 44.4219 232.726 44.3509 230.629 44.3509C228.531 44.3509 226.7 44.3509 225.136 44.3509H224.443L212.71 94.7324H214.577C216.639 94.7324 218.843 94.7324 221.189 94.7324C223.536 94.7324 225.438 94.6434 226.896 94.4655C228.78 94.2876 230.469 94.0029 231.962 93.6115C233.491 93.2202 235.162 92.562 236.975 91.637C242.095 89.0039 246.023 85.0723 248.761 79.8422C251.534 74.6118 252.92 68.901 252.92 62.7101ZM326.941 71.6229C327.048 70.9827 327.119 70.3955 327.154 69.8618C327.225 69.3281 327.261 68.7767 327.261 68.2072C327.261 65.3965 326.389 63.2438 324.647 61.7496C322.905 60.2552 320.399 59.5079 317.13 59.5079C313.182 59.5079 309.859 60.5755 307.156 62.7101C304.491 64.8451 302.462 67.8159 301.078 71.6229H326.941ZM312.276 110.903C302.072 110.903 294.197 108.644 288.652 104.126C283.106 99.6068 280.332 93.3626 280.332 85.3926C280.332 79.9488 281.238 74.9498 283.051 70.3955C284.865 65.8414 287.478 61.8385 290.891 58.3872C294.162 55.0426 298.249 52.392 303.156 50.4349C308.063 48.4782 313.45 47.4996 319.315 47.4996C328.241 47.4996 334.958 49.3143 339.474 52.9434C344.026 56.537 346.3 61.8562 346.3 68.901C346.3 71.3207 346.052 73.6866 345.555 75.9994C345.09 78.3122 344.471 80.607 343.687 82.8841H299.21C299.21 83.0978 299.21 83.3112 299.21 83.5246C299.21 83.7025 299.21 83.8981 299.21 84.1115C299.21 88.2746 300.668 91.5302 303.585 93.8785C306.498 96.2266 310.96 97.4008 316.969 97.4008C321.163 97.4008 325.128 96.6892 328.861 95.2661C332.631 93.8427 335.902 92.2595 338.674 90.5161H340.806L337.235 105.94C333.502 107.577 329.573 108.804 325.447 109.623C321.324 110.477 316.934 110.903 312.276 110.903ZM389.496 26.2583L370.298 109.302H350.994L370.192 26.2583H389.496ZM421.494 49.3676L407.629 109.302H388.325L402.19 49.3676H421.494ZM427.362 26.2583L424.001 40.8284H403.629L406.99 26.2583H427.362ZM499.195 49.3676L462.238 109.302H440.373L431.308 49.3676H451.093L455.467 90.6229L478.559 49.3676H499.195ZM545.059 71.6229C545.166 70.9827 545.237 70.3955 545.272 69.8618C545.343 69.3281 545.379 68.7767 545.379 68.2072C545.379 65.3965 544.508 63.2438 542.766 61.7496C541.023 60.2552 538.517 59.5079 535.246 59.5079C531.3 59.5079 527.977 60.5755 525.274 62.7101C522.606 64.8451 520.58 67.8159 519.193 71.6229H545.059ZM530.394 110.903C520.19 110.903 512.315 108.644 506.77 104.126C501.221 99.6068 498.45 93.3626 498.45 85.3926C498.45 79.9488 499.356 74.9498 501.17 70.3955C502.983 65.8414 505.596 61.8385 509.009 58.3872C512.28 55.0426 516.367 52.392 521.274 50.4349C526.181 48.4782 531.568 47.4996 537.433 47.4996C546.356 47.4996 553.076 49.3143 557.592 52.9434C562.144 56.537 564.418 61.8562 564.418 68.901C564.418 71.3207 564.17 73.6866 563.673 75.9994C563.208 78.3122 562.586 80.607 561.805 82.8841H517.328C517.328 83.0978 517.328 83.3112 517.328 83.5246C517.328 83.7025 517.328 83.8981 517.328 84.1115C517.328 88.2746 518.786 91.5302 521.7 93.8785C524.616 96.2266 529.078 97.4008 535.087 97.4008C539.281 97.4008 543.246 96.6892 546.979 95.2661C550.747 93.8427 554.018 92.2595 556.792 90.5161H558.924L555.353 105.94C551.618 107.577 547.691 108.804 543.566 109.623C539.443 110.477 535.052 110.903 530.394 110.903ZM622.228 67.6736H620.521C619.666 67.3891 618.46 67.1754 616.895 67.033C615.33 66.891 613.782 66.8196 612.253 66.8196C609.73 66.8196 607.295 67.0153 604.949 67.4069C602.601 67.7626 600.184 68.3496 597.694 69.168L588.416 109.302H569.112L582.977 49.3676H602.282L600.255 58.1738C603.882 55.5052 607.491 53.3347 611.082 51.6624C614.708 49.9904 618.353 49.1542 622.015 49.1542C622.689 49.1542 623.437 49.1719 624.254 49.2075C625.108 49.243 625.854 49.2966 626.493 49.3676L622.228 67.6736ZM645.478 131.291H624.415L639.667 108.128L629.799 49.3676H649.426L654.597 88.6481L677.424 49.3676H697.69L645.478 131.291Z" fill="#262626"/>
</g>
<defs>
<clipPath id="clip0_1297_1622">
<rect width="699" height="235" fill="white"/>
</clipPath>
</defs>
</svg>