<svg xmlns="http://www.w3.org/2000/svg" width="121" height="66" viewBox="0 0 121 66" fill="none">
<g clip-path="url(#clip0_1196_619)">
<path d="M0 8.37901V51.8614L14.0939 57.9437V42.5114L23.9662 38.3055V36.8172L14.0939 32.579V14.0731L26.1095 8.96136L24.4858 6.30842L14.7434 2.10254L0 8.37901Z" fill="#8DC6E2"/>
<path d="M14.0939 57.9437L0 51.8613V65.9672L14.0939 58.5584V57.9437Z" fill="#2C66AF"/>
<path d="M14.094 32.5795V31.4795L26.1096 26.4648L37.1184 31.2854V32.6119L23.9662 38.306V36.8178L14.094 32.5795Z" fill="#2C66AF"/>
<path d="M37.1508 31.8031L26.1099 26.4857V6.95605L37.1508 12.1972V31.8031Z" fill="#2D2E83"/>
<path d="M26.1094 6.95565L24.4857 6.30859L26.1094 8.96153V6.95565Z" fill="#2D2E83"/>
<path d="M24.4858 6.30882L14.7434 2.10294L20.4589 0L24.4858 6.30882Z" fill="#2C66AF"/>
<path d="M26.1095 6.95605V8.96194L27.993 7.86194L26.1095 6.95605Z" fill="#2C66AF"/>
<path d="M45.7826 23.2938V7.57031H51.8813V9.14267H47.9844V14.3838H51.0045V15.9368H47.9844V23.2938H45.7826ZM54.3291 23.2938V12.0738H56.414V23.2938H54.3291ZM54.3291 10.4044V8.23031H56.414V10.4044H54.3291ZM59.6195 23.2938V12.0738H61.7043V13.1803C62.081 12.8309 62.4967 12.5333 62.9513 12.2874C63.406 12.0415 63.9061 11.9185 64.4517 11.9185C64.9063 11.9185 65.2504 12.035 65.4842 12.268C65.731 12.5009 65.8999 12.7921 65.9908 13.1415C66.0947 13.4909 66.1467 13.8468 66.1467 14.2091V23.2938H64.062V14.8109C64.062 14.4097 64.0035 14.0991 63.8866 13.8791C63.7697 13.6591 63.5294 13.5491 63.1657 13.5491C62.9319 13.5491 62.6851 13.6203 62.4253 13.7627C62.1784 13.8921 61.9381 14.0538 61.7043 14.248V23.2938H59.6195ZM72.1571 23.4491C71.5725 23.4491 71.0984 23.3391 70.7347 23.1191C70.384 22.8991 70.1242 22.5885 69.9553 22.1874C69.7994 21.7862 69.7215 21.3138 69.7215 20.7703V13.4521H68.5329V12.0738H69.7215V8.79325H71.8064V12.0738H73.6184V13.4521H71.8064V20.6344C71.8064 21.0744 71.8778 21.3915 72.0207 21.5856C72.1636 21.7668 72.4364 21.8574 72.839 21.8574C72.943 21.8574 73.0599 21.8509 73.1898 21.838C73.3327 21.825 73.4691 21.8121 73.599 21.7991V23.3327C73.3392 23.3715 73.0988 23.3974 72.878 23.4103C72.6572 23.4362 72.4169 23.4491 72.1571 23.4491ZM79.2417 23.4491C78.3584 23.4491 77.6765 23.2809 77.1958 22.9444C76.7152 22.595 76.3775 22.0903 76.1826 21.4303C76.0008 20.7574 75.9098 19.9356 75.9098 18.965V16.4027C75.9098 15.4062 76.0073 14.578 76.2021 13.918C76.397 13.258 76.7347 12.7597 77.2153 12.4233C77.7089 12.0868 78.3844 11.9185 79.2417 11.9185C80.19 11.9185 80.8849 12.1127 81.3266 12.5009C81.7812 12.8891 82.08 13.4521 82.2229 14.1897C82.3658 14.9144 82.4372 15.788 82.4372 16.8103V17.7227H77.9947V19.9744C77.9947 20.4274 78.0337 20.7962 78.1116 21.0809C78.2025 21.3656 78.3389 21.5791 78.5208 21.7215C78.7156 21.8509 78.9624 21.9156 79.2612 21.9156C79.573 21.9156 79.8068 21.8444 79.9627 21.7021C80.1315 21.5468 80.2419 21.3333 80.2939 21.0615C80.3588 20.7768 80.3913 20.4468 80.3913 20.0715V19.3921H82.4177V19.8191C82.4177 20.945 82.1774 21.8315 81.6968 22.4785C81.2162 23.1256 80.3978 23.4491 79.2417 23.4491ZM77.9947 16.5968H80.3913V15.5874C80.3913 15.1215 80.3653 14.7333 80.3134 14.4227C80.2614 14.0991 80.151 13.8597 79.9821 13.7044C79.8263 13.5362 79.573 13.4521 79.2222 13.4521C78.8845 13.4521 78.6247 13.5297 78.4428 13.685C78.274 13.8403 78.1571 14.1056 78.0921 14.4809C78.0272 14.8433 77.9947 15.348 77.9947 15.995V16.5968ZM88.3781 23.4491C87.4558 23.4491 86.7544 23.268 86.2737 22.9056C85.8061 22.5303 85.4879 22.0062 85.319 21.3333C85.1631 20.6603 85.0852 19.8774 85.0852 18.9844V16.4027C85.0852 15.458 85.1696 14.6556 85.3385 13.9956C85.5074 13.3227 85.8256 12.8115 86.2932 12.4621C86.7739 12.0997 87.4688 11.9185 88.3781 11.9185C89.1965 11.9185 89.8265 12.0544 90.2681 12.3262C90.7228 12.585 91.0345 12.9797 91.2034 13.5103C91.3722 14.028 91.4567 14.675 91.4567 15.4515V16.1115H89.5667V15.4321C89.5667 14.9403 89.5342 14.5521 89.4692 14.2674C89.4043 13.9827 89.2874 13.7756 89.1185 13.6462C88.9496 13.5168 88.7093 13.4521 88.3976 13.4521C88.0598 13.4521 87.8001 13.5297 87.6182 13.685C87.4363 13.8403 87.3129 14.1056 87.248 14.4809C87.196 14.8433 87.17 15.3415 87.17 15.9756V19.5085C87.17 20.4662 87.261 21.1068 87.4428 21.4303C87.6247 21.7538 87.9494 21.9156 88.4171 21.9156C88.7678 21.9156 89.0211 21.838 89.177 21.6827C89.3458 21.5144 89.4498 21.2815 89.4887 20.9838C89.5407 20.6862 89.5667 20.3497 89.5667 19.9744V19.0621H91.4567V19.8385C91.4567 20.5891 91.3658 21.2362 91.1839 21.7797C91.015 22.3233 90.7033 22.7374 90.2486 23.0221C89.807 23.3068 89.1835 23.4491 88.3781 23.4491ZM94.343 23.2938V7.57031H96.4279V13.2385C96.8046 12.8762 97.2268 12.5656 97.6944 12.3068C98.162 12.048 98.6816 11.9185 99.2532 11.9185C99.6948 11.9185 100.033 12.035 100.266 12.268C100.513 12.5009 100.682 12.7921 100.773 13.1415C100.877 13.4909 100.929 13.8468 100.929 14.2091V23.2938H98.844V14.8109C98.844 14.4097 98.7855 14.0991 98.6686 13.8791C98.5517 13.6591 98.3114 13.5491 97.9477 13.5491C97.7009 13.5491 97.4411 13.6203 97.1683 13.7627C96.9085 13.905 96.6617 14.0797 96.4279 14.2868V23.2938H94.343Z" fill="#fff"/>
<path d="M45.7826 54.2235V38.5H49.699C50.6473 38.5 51.4007 38.6747 51.9592 39.0241C52.5308 39.3606 52.9465 39.8524 53.2063 40.4994C53.4661 41.1465 53.596 41.9294 53.596 42.8482C53.596 43.6765 53.4466 44.3947 53.1478 45.0029C52.862 45.6112 52.4334 46.0835 51.8618 46.42C51.2903 46.7435 50.5758 46.9053 49.7185 46.9053H47.9844V54.2235H45.7826ZM47.9844 45.3329H48.9976C49.6341 45.3329 50.1342 45.2618 50.4979 45.1194C50.8616 44.9771 51.1214 44.7312 51.2773 44.3818C51.4332 44.0194 51.5111 43.5147 51.5111 42.8676C51.5111 42.1171 51.4526 41.5412 51.3357 41.14C51.2318 40.7388 51.0045 40.4606 50.6538 40.3053C50.303 40.15 49.7575 40.0724 49.0171 40.0724H47.9844V45.3329ZM56.1381 54.2235V38.5H58.223V54.2235H56.1381ZM63.3964 54.3788C62.9548 54.3788 62.5651 54.2559 62.2274 54.01C61.8896 53.7512 61.6233 53.4276 61.4285 53.0394C61.2336 52.6382 61.1362 52.2176 61.1362 51.7776C61.1362 51.0788 61.2531 50.49 61.4869 50.0112C61.7208 49.5324 62.039 49.1312 62.4417 48.8076C62.8574 48.4712 63.3315 48.18 63.8641 47.9341C64.4096 47.6882 64.9815 47.4488 65.579 47.2159V46.42C65.579 45.9671 65.5531 45.5918 65.5011 45.2941C65.4492 44.9965 65.3387 44.7765 65.1699 44.6341C65.014 44.4788 64.7734 44.4012 64.4486 44.4012C64.1628 44.4012 63.929 44.4659 63.7472 44.5953C63.5783 44.7247 63.4549 44.9124 63.377 45.1582C63.299 45.3912 63.26 45.6694 63.26 45.9929V46.5559L61.1947 46.4782C61.2206 45.2359 61.5064 44.3235 62.052 43.7412C62.5976 43.1459 63.4419 42.8482 64.585 42.8482C65.7025 42.8482 66.4948 43.1524 66.9625 43.7606C67.4301 44.3688 67.6639 45.2488 67.6639 46.4006V51.5253C67.6639 51.8747 67.6704 52.2112 67.6834 52.5347C67.7094 52.8582 67.7354 53.1624 67.7613 53.4471C67.8003 53.7188 67.8328 53.9776 67.8588 54.2235H65.9493C65.9103 54.0165 65.8583 53.7576 65.7934 53.4471C65.7414 53.1235 65.7025 52.8324 65.6765 52.5735C65.5466 53.0135 65.2933 53.4276 64.9162 53.8159C64.5525 54.1912 64.0459 54.3788 63.3964 54.3788ZM64.2148 52.5929C64.4226 52.5929 64.6175 52.5347 64.7993 52.4182C64.9815 52.3018 65.1439 52.1724 65.2868 52.03C65.4297 51.8747 65.5271 51.7518 65.579 51.6612V48.4776C65.2543 48.6588 64.9487 48.84 64.6629 49.0212C64.3772 49.2024 64.1239 49.3965 63.903 49.6035C63.6952 49.7976 63.5263 50.0241 63.3964 50.2829C63.2795 50.5288 63.2211 50.8135 63.2211 51.1371C63.2211 51.59 63.3055 51.9459 63.4744 52.2047C63.6432 52.4635 63.89 52.5929 64.2148 52.5929ZM73.4892 54.3788C72.9046 54.3788 72.4305 54.2688 72.0668 54.0488C71.7161 53.8288 71.4563 53.5182 71.2874 53.1171C71.1315 52.7159 71.0536 52.2435 71.0536 51.7V44.3818H69.865V43.0035H71.0536V39.7229H73.1385V43.0035H74.9505V44.3818H73.1385V51.5641C73.1385 52.0041 73.2099 52.3212 73.3528 52.5153C73.4957 52.6965 73.7685 52.7871 74.1712 52.7871C74.2751 52.7871 74.392 52.7806 74.5219 52.7676C74.6648 52.7547 74.8012 52.7418 74.9311 52.7288V54.2624C74.6713 54.3012 74.4309 54.3271 74.2101 54.34C73.9893 54.3659 73.749 54.3788 73.4892 54.3788ZM78.1188 54.2235V44.5371H76.7743V43.0035H78.1188V42.4212C78.1188 41.7224 78.1707 41.1271 78.2746 40.6353C78.3915 40.1306 78.6254 39.7424 78.9761 39.4706C79.3268 39.1988 79.8529 39.0629 80.5543 39.0629C80.8141 39.0629 81.0415 39.0759 81.2363 39.1018C81.4441 39.1147 81.6715 39.1471 81.9183 39.1988V40.7129C81.8014 40.6871 81.6715 40.6676 81.5286 40.6547C81.3857 40.6288 81.2558 40.6159 81.1389 40.6159C80.7362 40.6159 80.4764 40.7518 80.3595 41.0235C80.2556 41.2824 80.2036 41.6318 80.2036 42.0718V43.0035H81.9183V44.5371H80.2036V54.2235H78.1188ZM87.1226 54.3788C86.2913 54.3788 85.6353 54.2106 85.1547 53.8741C84.6741 53.5376 84.3298 53.0588 84.122 52.4376C83.9271 51.8165 83.8297 51.0853 83.8297 50.2441V46.9829C83.8297 46.1418 83.9271 45.4106 84.122 44.7894C84.3298 44.1682 84.6741 43.6894 85.1547 43.3529C85.6353 43.0165 86.2913 42.8482 87.1226 42.8482C87.954 42.8482 88.6035 43.0165 89.0711 43.3529C89.5517 43.6894 89.8895 44.1682 90.0843 44.7894C90.2921 45.4106 90.3961 46.1418 90.3961 46.9829V50.2441C90.3961 51.0853 90.2921 51.8165 90.0843 52.4376C89.8895 53.0588 89.5517 53.5376 89.0711 53.8741C88.6035 54.2106 87.954 54.3788 87.1226 54.3788ZM87.1226 52.8453C87.5253 52.8453 87.8046 52.7288 87.9605 52.4959C88.1293 52.2629 88.2268 51.9588 88.2528 51.5835C88.2917 51.1953 88.3112 50.7941 88.3112 50.38V46.8665C88.3112 46.4394 88.2917 46.0382 88.2528 45.6629C88.2268 45.2876 88.1293 44.9835 87.9605 44.7506C87.8046 44.5047 87.5253 44.3818 87.1226 44.3818C86.72 44.3818 86.4342 44.5047 86.2653 44.7506C86.0964 44.9835 85.9925 45.2876 85.9536 45.6629C85.9276 46.0382 85.9146 46.4394 85.9146 46.8665V50.38C85.9146 50.7941 85.9276 51.1953 85.9536 51.5835C85.9925 51.9588 86.0964 52.2629 86.2653 52.4959C86.4342 52.7288 86.72 52.8453 87.1226 52.8453ZM93.335 54.2235V43.0035H95.4199V44.5953C95.8355 43.9094 96.2512 43.45 96.6669 43.2171C97.0826 42.9841 97.4982 42.8676 97.9139 42.8676C97.9659 42.8676 98.0113 42.8676 98.0503 42.8676C98.1023 42.8676 98.1672 42.8741 98.2452 42.8871V45.1776C98.0893 45.1129 97.9074 45.0612 97.6996 45.0224C97.5047 44.9706 97.3034 44.9447 97.0956 44.9447C96.7708 44.9447 96.472 45.0224 96.1993 45.1776C95.9395 45.32 95.6797 45.6047 95.4199 46.0318V54.2235H93.335ZM100.511 54.2235V43.0035H102.44V44.0712C102.816 43.6441 103.232 43.3271 103.687 43.12C104.141 42.9129 104.609 42.8094 105.089 42.8094C105.505 42.8094 105.875 42.9129 106.2 43.12C106.538 43.3271 106.778 43.6959 106.921 44.2265C107.324 43.7347 107.759 43.3788 108.227 43.1588C108.707 42.9259 109.207 42.8094 109.727 42.8094C110.091 42.8094 110.422 42.9 110.721 43.0812C111.019 43.2494 111.26 43.5276 111.441 43.9159C111.623 44.2912 111.714 44.7894 111.714 45.4106V54.2235H109.805V45.5465C109.805 45.0029 109.714 44.6406 109.532 44.4594C109.363 44.2653 109.129 44.1682 108.831 44.1682C108.545 44.1682 108.246 44.2524 107.934 44.4206C107.622 44.5759 107.337 44.7959 107.077 45.0806C107.077 45.1324 107.077 45.1841 107.077 45.2359C107.077 45.2876 107.077 45.3459 107.077 45.4106V54.2235H105.167V45.5465C105.167 45.0029 105.076 44.6406 104.895 44.4594C104.726 44.2653 104.492 44.1682 104.193 44.1682C103.907 44.1682 103.609 44.2524 103.297 44.4206C102.998 44.5759 102.712 44.7959 102.44 45.0806V54.2235H100.511ZM117.34 54.3788C116.417 54.3788 115.677 54.0941 115.118 53.5247C114.56 52.9424 114.241 52.1788 114.164 51.2341L115.898 50.71C116.002 51.4218 116.177 51.9588 116.424 52.3212C116.671 52.6706 117.034 52.8453 117.515 52.8453C117.892 52.8453 118.177 52.7418 118.372 52.5347C118.567 52.3147 118.664 52.0235 118.664 51.6612C118.664 51.3376 118.593 51.0465 118.45 50.7876C118.307 50.5288 118.073 50.2635 117.749 49.9918L115.82 48.3418C115.43 48.0053 115.099 47.63 114.826 47.2159C114.566 46.8018 114.436 46.2647 114.436 45.6047C114.436 45.0094 114.553 44.5112 114.787 44.11C115.034 43.6959 115.372 43.3853 115.8 43.1782C116.242 42.9582 116.755 42.8482 117.34 42.8482C118.236 42.8482 118.918 43.1394 119.385 43.7218C119.866 44.2912 120.139 44.9835 120.204 45.7988L118.801 46.3229C118.749 45.9347 118.671 45.5982 118.567 45.3135C118.463 45.0159 118.32 44.7894 118.138 44.6341C117.957 44.4659 117.716 44.3818 117.417 44.3818C117.08 44.3818 116.807 44.4982 116.599 44.7312C116.404 44.9512 116.307 45.2165 116.307 45.5271C116.307 45.7212 116.346 45.9153 116.424 46.1094C116.515 46.2906 116.664 46.4718 116.872 46.6529L118.859 48.4776C119.132 48.7235 119.385 48.9888 119.619 49.2735C119.866 49.5582 120.067 49.8818 120.223 50.2441C120.379 50.6065 120.457 51.0271 120.457 51.5059C120.457 52.14 120.327 52.6706 120.067 53.0976C119.808 53.5247 119.444 53.8482 118.976 54.0682C118.509 54.2753 117.963 54.3788 117.34 54.3788Z" fill="#fff"/>
</g>
<defs>
<clipPath id="clip0_1196_619">
<rect width="121" height="66" fill="white"/>
</clipPath>
</defs>
</svg>