<svg xmlns="http://www.w3.org/2000/svg" width="160" height="54" viewBox="0 0 160 54" fill="none">
<g clip-path="url(#clip0_1278_143)">
    <path d="M54.6778 37.6916C54.6778 37.8878 54.6615 38.1413 54.6289 38.4519C54.5964 38.7626 54.5435 39.0733 54.4702 39.384L52.4073 48.3488H47.9639L49.5386 41.5179C49.6525 40.9947 49.742 40.5531 49.8072 40.1934C49.8723 39.8337 49.9048 39.5107 49.9048 39.2246C49.9048 38.6768 49.7665 38.2844 49.4898 38.0473C49.2212 37.8019 48.7288 37.6793 48.0127 37.6793C47.6628 37.6793 47.26 37.757 46.8042 37.9123C46.3485 38.0595 45.8399 38.2844 45.2783 38.5868L43.0323 48.3488H38.6133L42.9957 29.2664H47.4146L45.8521 36.0973C46.7473 35.5005 47.5692 35.0344 48.3179 34.6992C49.0666 34.364 49.8885 34.1964 50.7837 34.1964C52.0288 34.1964 52.9892 34.503 53.6646 35.1162C54.34 35.7212 54.6778 36.5797 54.6778 37.6916ZM73.2813 34.5766L70.1075 48.3488H65.6888L66.0425 46.8281C65.6032 47.1143 65.1719 47.384 64.7488 47.6375C64.3338 47.8828 63.9388 48.079 63.5644 48.2262C63.0925 48.4224 62.6613 48.5532 62.2705 48.6186C61.8799 48.6922 61.4933 48.729 61.1108 48.729C59.9065 48.729 58.9543 48.4387 58.2544 47.8583C57.5627 47.2778 57.2168 46.4193 57.2168 45.2829C57.2168 44.9722 57.2331 44.6861 57.2657 44.4244C57.2982 44.1546 57.3511 43.8603 57.4243 43.5414L59.4873 34.5766H63.9307L62.356 41.4075C62.2339 41.9307 62.1403 42.3804 62.0752 42.7566C62.0183 43.1326 61.9898 43.4515 61.9898 43.7131C61.9898 44.2527 62.12 44.6452 62.3804 44.8904C62.6407 45.1275 63.1332 45.2461 63.8575 45.2461C64.2157 45.2461 64.6263 45.1684 65.0907 45.0131C65.5625 44.8577 66.0713 44.6329 66.6163 44.3386L68.8625 34.5766H73.2813ZM90.4563 38.9793C90.4563 40.2302 90.2532 41.4443 89.8463 42.6216C89.4475 43.7989 88.8982 44.825 88.1982 45.6998C87.4819 46.591 86.6438 47.3023 85.6838 47.8338C84.7231 48.357 83.6613 48.6186 82.4975 48.6186C81.7325 48.6186 81.045 48.541 80.4344 48.3856C79.8325 48.2303 79.295 47.9891 78.8232 47.662L78.4938 48.3488H74.2575L78.64 29.2664H83.0594L81.5088 36.0115C82.2982 35.4637 83.0469 35.0263 83.755 34.6992C84.4713 34.364 85.2688 34.1964 86.1475 34.1964C87.5638 34.1964 88.6338 34.6215 89.3582 35.4718C90.0907 36.3139 90.4563 37.4831 90.4563 38.9793ZM85.8057 39.8009C85.8057 39.0324 85.6388 38.4479 85.305 38.0473C84.9713 37.6466 84.3938 37.4463 83.5719 37.4463C83.1407 37.4463 82.7175 37.524 82.3025 37.6793C81.8875 37.8265 81.4475 38.0227 80.9838 38.268L79.3969 45.1847C79.6819 45.2992 79.9832 45.3933 80.3 45.4669C80.6175 45.5322 80.9757 45.5649 81.3744 45.5649C82.7338 45.5649 83.8119 45.0294 84.6094 43.9584C85.4069 42.8792 85.8057 41.4933 85.8057 39.8009Z" fill="#262626"/>
    <path d="M35 13.0654H20.1933L21.2382 6.73112L4.76313 19.3951L18.7329 33.116C12.7481 35.6361 3.77174 32.0453 0.435537 23.6027C-2.48133 11.3584 9.82844 3.42761 20.1933 3.77852C30.2034 4.11742 34.2353 10.1105 35 13.0654Z" fill="#262626"/>
    <path d="M0 40.5002H14.8067L13.7618 46.7027L30.2369 34.3025L16.2671 20.8674C22.2519 18.3999 31.2283 21.9158 34.5644 30.1826C37.4813 42.1717 25.1716 49.9373 14.8067 49.5937C4.79658 49.2619 0.764666 43.3936 0 40.5002Z" fill="#262626"/>
    <path d="M62.8 13.9806C62.8 16.0491 62.2592 17.9582 61.1768 19.7078C60.0944 21.4575 58.7069 22.7983 57.0142 23.7304C55.9888 24.2863 54.9187 24.6583 53.8037 24.8464C52.6888 25.0263 51.3542 25.1162 49.7998 25.1162H43.2202L47.4195 6.85538H53.3033C55.0367 6.85538 56.4323 6.99026 57.4903 7.26007C58.5482 7.52988 59.4027 7.89369 60.0537 8.35156C60.9489 8.97294 61.6285 9.74959 62.0923 10.6817C62.5644 11.6056 62.8 12.7052 62.8 13.9806ZM57.8931 14.4099C57.8931 13.5759 57.7385 12.8606 57.4292 12.2637C57.12 11.6587 56.648 11.1722 56.0132 10.8043C55.7202 10.6408 55.4192 10.5182 55.1099 10.4364C54.8088 10.3465 54.4629 10.2811 54.0723 10.2402C53.698 10.2075 53.2707 10.1911 52.7905 10.1911C52.3104 10.1911 51.8913 10.1911 51.5332 10.1911H51.3745L48.689 21.7682H49.1162C49.5882 21.7682 50.0928 21.7682 50.6299 21.7682C51.167 21.7682 51.6024 21.7477 51.9361 21.7068C52.3674 21.666 52.7539 21.6005 53.0957 21.5106C53.4457 21.4207 53.8282 21.2694 54.2432 21.0569C55.4151 20.4518 56.3143 19.5484 56.941 18.3466C57.5757 17.1447 57.8931 15.8324 57.8931 14.4099ZM74.8363 16.4579C74.8607 16.3108 74.8769 16.1758 74.885 16.0532C74.9013 15.9306 74.9094 15.8039 74.9094 15.673C74.9094 15.0272 74.71 14.5325 74.3113 14.1891C73.9125 13.8457 73.3388 13.674 72.5907 13.674C71.6869 13.674 70.9263 13.9193 70.3075 14.4099C69.6975 14.9004 69.2332 15.5831 68.9163 16.4579H74.8363ZM71.4794 25.4841C69.1438 25.4841 67.3413 24.9649 66.0719 23.9266C64.8025 22.8882 64.1675 21.4534 64.1675 19.622C64.1675 18.3711 64.375 17.2224 64.79 16.1758C65.205 15.1294 65.8032 14.2096 66.5844 13.4165C67.3332 12.648 68.2688 12.0389 69.3919 11.5892C70.515 11.1395 71.7482 10.9147 73.0907 10.9147C75.1338 10.9147 76.6713 11.3317 77.705 12.1656C78.7469 12.9914 79.2675 14.2136 79.2675 15.8324C79.2675 16.3885 79.2107 16.9321 79.0969 17.4636C78.9907 17.995 78.8488 18.5223 78.6694 19.0456H68.4888C68.4888 19.0947 68.4888 19.1437 68.4888 19.1927C68.4888 19.2336 68.4888 19.2786 68.4888 19.3276C68.4888 20.2842 68.8225 21.0323 69.49 21.572C70.1569 22.1115 71.1782 22.3813 72.5538 22.3813C73.5138 22.3813 74.4213 22.2178 75.2757 21.8908C76.1388 21.5637 76.8875 21.1999 77.5219 20.7993H78.01L77.1925 24.3435C76.3382 24.7197 75.4388 25.0017 74.4944 25.1898C73.5507 25.386 72.5457 25.4841 71.4794 25.4841ZM89.155 6.03369L84.7607 25.1162H80.3419L84.7363 6.03369H89.155ZM96.4794 11.3439L93.3057 25.1162H88.8869L92.0607 11.3439H96.4794ZM97.8225 6.03369L97.0532 9.3817H92.39L93.1594 6.03369H97.8225ZM114.265 11.3439L105.806 25.1162H100.801L98.7257 11.3439H103.254L104.256 20.8239L109.541 11.3439H114.265ZM124.763 16.4579C124.788 16.3108 124.804 16.1758 124.812 16.0532C124.828 15.9306 124.836 15.8039 124.836 15.673C124.836 15.0272 124.637 14.5325 124.238 14.1891C123.839 13.8457 123.266 13.674 122.517 13.674C121.614 13.674 120.853 13.9193 120.234 14.4099C119.624 14.9004 119.16 15.5831 118.843 16.4579H124.763ZM121.406 25.4841C119.071 25.4841 117.268 24.9649 115.999 23.9266C114.729 22.8882 114.094 21.4534 114.094 19.622C114.094 18.3711 114.302 17.2224 114.717 16.1758C115.132 15.1294 115.73 14.2096 116.511 13.4165C117.26 12.648 118.196 12.0389 119.319 11.5892C120.442 11.1395 121.675 10.9147 123.018 10.9147C125.06 10.9147 126.598 11.3317 127.632 12.1656C128.674 12.9914 129.194 14.2136 129.194 15.8324C129.194 16.3885 129.138 16.9321 129.024 17.4636C128.918 17.995 128.775 18.5223 128.596 19.0456H118.416C118.416 19.0947 118.416 19.1437 118.416 19.1927C118.416 19.2336 118.416 19.2786 118.416 19.3276C118.416 20.2842 118.749 21.0323 119.416 21.572C120.084 22.1115 121.105 22.3813 122.481 22.3813C123.441 22.3813 124.348 22.2178 125.203 21.8908C126.065 21.5637 126.814 21.1999 127.449 20.7993H127.937L127.119 24.3435C126.264 24.7197 125.366 25.0017 124.421 25.1898C123.478 25.386 122.473 25.4841 121.406 25.4841ZM142.427 15.5504H142.036C141.841 15.485 141.564 15.4359 141.206 15.4032C140.848 15.3706 140.494 15.3542 140.144 15.3542C139.566 15.3542 139.009 15.3991 138.472 15.4891C137.934 15.5709 137.381 15.7057 136.811 15.8938L134.688 25.1162H130.269L133.443 11.3439H137.861L137.398 13.3675C138.228 12.7543 139.054 12.2555 139.876 11.8712C140.706 11.487 141.54 11.2949 142.378 11.2949C142.533 11.2949 142.704 11.299 142.891 11.3071C143.086 11.3153 143.257 11.3276 143.403 11.3439L142.427 15.5504ZM147.749 30.1689H142.928L146.419 24.8464L144.16 11.3439H148.653L149.836 20.3701L155.061 11.3439H159.7L147.749 30.1689Z" fill="#262626"/>
</g>
<defs>
    <clipPath id="clip0_1278_143">
        <rect width="160" height="54" fill="white"/>
    </clipPath>
</defs>
</svg>