<svg xmlns="http://www.w3.org/2000/svg" width="123" height="123" viewBox="0 0 123 123" fill="none">
    <rect width="123" height="123" rx="30" fill="none"/>
    <path d="M32.4198 22.8691V93.8463L55.4021 103.775V78.5841L71.5004 71.7187V69.2895L55.4021 62.3713V32.1638L74.9954 23.8197L72.3476 19.4893L56.4612 12.6239L32.4198 22.8691Z" fill="#8DC6E2"/>
    <path d="M55.4021 103.775L32.4198 93.8463V116.872L55.4021 104.778V103.775Z" fill="#2C66AF"/>
    <path d="M55.4021 62.3712V60.5756L74.9953 52.39L92.947 60.2588V62.424L71.5003 71.7186V69.2893L55.4021 62.3712Z" fill="#2C66AF"/>
    <path d="M93 61.1038L74.996 52.424V20.5454L93 29.1007V61.1038Z" fill="#2D2E83"/>
    <path d="M74.9954 20.5456L72.3476 19.4894L74.9954 23.8198V20.5456Z" fill="#2D2E83"/>
    <path d="M72.3476 19.4893L56.4612 12.624L65.7812 9.19128L72.3476 19.4893Z" fill="#2C66AF"/>
    <path d="M74.9954 20.5454V23.8197L78.0667 22.0241L74.9954 20.5454Z" fill="#2C66AF"/>
</svg>